REM DIRINDEX 1\6,1\2\7,1\2\8,1\2\9,1\3\10,1\3\11,1\4\12,1\4\13,1\4\14,1\5\15,1\5\16,1\5\17
REM DIRNAME cjc040,folder01,folder02,folder03,folder04,folder05,folder06,folder07,folder08,folder09,folder10,folder11,folder12,folder13,folder14,folder15,folder16
TITLE ""
FILE "P2Q_t2_0233-0250.mp3" MP3
  TRACK 01 AUDIO
    TITLE "7:cjc040_4526"
    INDEX 01 00:00:00
  TRACK 02 AUDIO
    TITLE "0:"
    INDEX 01 00:01:13
  TRACK 03 AUDIO
    TITLE "8:cjc040_4527"
    INDEX 01 00:01:66
  TRACK 04 AUDIO
    TITLE "0:"
    INDEX 01 00:02:71
  TRACK 05 AUDIO
    TITLE "9:cjc040_4528"
    INDEX 01 00:03:51
  TRACK 06 AUDIO
    TITLE "0:"
    INDEX 01 00:05:05
  TRACK 07 AUDIO
    TITLE "7:cjc040_4529"
    INDEX 01 00:06:59
  TRACK 08 AUDIO
    TITLE "0:"
    INDEX 01 00:08:19
  TRACK 09 AUDIO
    TITLE "8:cjc040_4530"
    INDEX 01 00:09:02
  TRACK 10 AUDIO
    TITLE "0:"
    INDEX 01 00:11:42
  TRACK 11 AUDIO
    TITLE "9:cjc040_4531"
    INDEX 01 00:12:16
  TRACK 12 AUDIO
    TITLE "0:"
    INDEX 01 00:13:53
  TRACK 13 AUDIO
    TITLE "7:cjc040_4532"
    INDEX 01 00:15:32
  TRACK 14 AUDIO
    TITLE "0:"
    INDEX 01 00:16:42
  TRACK 15 AUDIO
    TITLE "8:cjc040_4533"
    INDEX 01 00:17:23
  TRACK 16 AUDIO
    TITLE "0:"
    INDEX 01 00:21:09
  TRACK 17 AUDIO
    TITLE "9:cjc040_4534"
    INDEX 01 00:21:64
  TRACK 18 AUDIO
    TITLE "0:"
    INDEX 01 00:23:03
  TRACK 19 AUDIO
    TITLE "7:cjc040_4535"
    INDEX 01 00:24:59
  TRACK 20 AUDIO
    TITLE "0:"
    INDEX 01 00:26:05
  TRACK 21 AUDIO
    TITLE "8:cjc040_4536"
    INDEX 01 00:26:54
  TRACK 22 AUDIO
    TITLE "0:"
    INDEX 01 00:27:61
  TRACK 23 AUDIO
    TITLE "9:cjc040_4537"
    INDEX 01 00:28:41
  TRACK 24 AUDIO
    TITLE "0:"
    INDEX 01 00:29:64
  TRACK 25 AUDIO
    TITLE "7:cjc040_4538"
    INDEX 01 00:31:47
  TRACK 26 AUDIO
    TITLE "0:"
    INDEX 01 00:32:68
  TRACK 27 AUDIO
    TITLE "8:cjc040_4539"
    INDEX 01 00:33:48
  TRACK 28 AUDIO
    TITLE "0:"
    INDEX 01 00:37:44
  TRACK 29 AUDIO
    TITLE "9:cjc040_4540"
    INDEX 01 00:38:22
  TRACK 30 AUDIO
    TITLE "0:"
    INDEX 01 00:39:41
  TRACK 31 AUDIO
    TITLE "7:cjc040_4541"
    INDEX 01 00:41:22
  TRACK 32 AUDIO
    TITLE "0:"
    INDEX 01 00:42:39
  TRACK 33 AUDIO
    TITLE "8:cjc040_4542"
    INDEX 01 00:43:17
  TRACK 34 AUDIO
    TITLE "0:"
    INDEX 01 00:44:22
  TRACK 35 AUDIO
    TITLE "9:cjc040_4543"
    INDEX 01 00:45:02
  TRACK 36 AUDIO
    TITLE "0:"
    INDEX 01 00:46:21
  TRACK 37 AUDIO
    TITLE "7:cjc040_4544"
    INDEX 01 00:48:02
  TRACK 38 AUDIO
    TITLE "0:"
    INDEX 01 00:49:29
  TRACK 39 AUDIO
    TITLE "8:cjc040_4545"
    INDEX 01 00:50:09
  TRACK 40 AUDIO
    TITLE "0:"
    INDEX 01 00:52:18
  TRACK 41 AUDIO
    TITLE "9:cjc040_4546"
    INDEX 01 00:52:71
  TRACK 42 AUDIO
    TITLE "0:"
    INDEX 01 00:54:21
  TRACK 43 AUDIO
    TITLE "7:cjc040_4547"
    INDEX 01 00:56:06
  TRACK 44 AUDIO
    TITLE "0:"
    INDEX 01 00:57:35
  TRACK 45 AUDIO
    TITLE "8:cjc040_4548"
    INDEX 01 00:58:17
  TRACK 46 AUDIO
    TITLE "0:"
    INDEX 01 00:59:65
  TRACK 47 AUDIO
    TITLE "9:cjc040_4549"
    INDEX 01 01:00:39
  TRACK 48 AUDIO
    TITLE "0:"
    INDEX 01 01:01:66
  TRACK 49 AUDIO
    TITLE "7:cjc040_4550"
    INDEX 01 01:03:49
  TRACK 50 AUDIO
    TITLE "0:"
    INDEX 01 01:04:72
  TRACK 51 AUDIO
    TITLE "8:cjc040_4551"
    INDEX 01 01:05:58
  TRACK 52 AUDIO
    TITLE "0:"
    INDEX 01 01:06:63
  TRACK 53 AUDIO
    TITLE "9:cjc040_4552"
    INDEX 01 01:07:45
  TRACK 54 AUDIO
    TITLE "0:"
    INDEX 01 01:08:66
  TRACK 55 AUDIO
    TITLE "7:cjc040_4553"
    INDEX 01 01:10:51
  TRACK 56 AUDIO
    TITLE "0:"
    INDEX 01 01:11:51
  TRACK 57 AUDIO
    TITLE "8:cjc040_4554"
    INDEX 01 01:12:28
  TRACK 58 AUDIO
    TITLE "0:"
    INDEX 01 01:13:36
  TRACK 59 AUDIO
    TITLE "9:cjc040_4555"
    INDEX 01 01:14:19
  TRACK 60 AUDIO
    TITLE "0:"
    INDEX 01 01:15:23
  TRACK 61 AUDIO
    TITLE "7:cjc040_4556"
    INDEX 01 01:17:04
  TRACK 62 AUDIO
    TITLE "0:"
    INDEX 01 01:18:39
  TRACK 63 AUDIO
    TITLE "8:cjc040_4557"
    INDEX 01 01:19:21
  TRACK 64 AUDIO
    TITLE "0:"
    INDEX 01 01:22:72
  TRACK 65 AUDIO
    TITLE "9:cjc040_4558"
    INDEX 01 01:23:50
  TRACK 66 AUDIO
    TITLE "0:"
    INDEX 01 01:25:11
  TRACK 67 AUDIO
    TITLE "7:cjc040_4559"
    INDEX 01 01:26:68
  TRACK 68 AUDIO
    TITLE "0:"
    INDEX 01 01:28:25
  TRACK 69 AUDIO
    TITLE "8:cjc040_4560"
    INDEX 01 01:29:05
  TRACK 70 AUDIO
    TITLE "0:"
    INDEX 01 01:30:22
  TRACK 71 AUDIO
    TITLE "9:cjc040_4561"
    INDEX 01 01:31:00
  TRACK 72 AUDIO
    TITLE "0:"
    INDEX 01 01:32:33
  TRACK 73 AUDIO
    TITLE "7:cjc040_4562"
    INDEX 01 01:34:20
  TRACK 74 AUDIO
    TITLE "0:"
    INDEX 01 01:35:27
  TRACK 75 AUDIO
    TITLE "8:cjc040_4563"
    INDEX 01 01:36:05
  TRACK 76 AUDIO
    TITLE "0:"
    INDEX 01 01:39:04
  TRACK 77 AUDIO
    TITLE "9:cjc040_4564"
    INDEX 01 01:39:59
  TRACK 78 AUDIO
    TITLE "0:"
    INDEX 01 01:40:68
  TRACK 79 AUDIO
    TITLE "7:cjc040_4565"
    INDEX 01 01:42:49
  TRACK 80 AUDIO
    TITLE "0:"
    INDEX 01 01:43:56
  TRACK 81 AUDIO
    TITLE "8:cjc040_4566"
    INDEX 01 01:44:28
  TRACK 82 AUDIO
    TITLE "0:"
    INDEX 01 01:48:11
  TRACK 83 AUDIO
    TITLE "9:cjc040_4567"
    INDEX 01 01:48:60
  TRACK 84 AUDIO
    TITLE "0:"
    INDEX 01 01:49:69
  TRACK 85 AUDIO
    TITLE "7:cjc040_4568"
    INDEX 01 01:51:50
  TRACK 86 AUDIO
    TITLE "0:"
    INDEX 01 01:53:14
  TRACK 87 AUDIO
    TITLE "8:cjc040_4569"
    INDEX 01 01:53:67
  TRACK 88 AUDIO
    TITLE "0:"
    INDEX 01 01:56:37
  TRACK 89 AUDIO
    TITLE "9:cjc040_4570"
    INDEX 01 01:57:17
  TRACK 90 AUDIO
    TITLE "0:"
    INDEX 01 01:58:56
  TRACK 91 AUDIO
    TITLE "7:cjc040_4571"
    INDEX 01 02:00:35
  TRACK 92 AUDIO
    TITLE "0:"
    INDEX 01 02:01:74
  TRACK 93 AUDIO
    TITLE "8:cjc040_4572"
    INDEX 01 02:02:62
  TRACK 94 AUDIO
    TITLE "0:"
    INDEX 01 02:04:66
  TRACK 95 AUDIO
    TITLE "9:cjc040_4573"
    INDEX 01 02:05:44
  TRACK 96 AUDIO
    TITLE "0:"
    INDEX 01 02:07:14
  TRACK 97 AUDIO
    TITLE "7:cjc040_4574"
    INDEX 01 02:08:68
  TRACK 98 AUDIO
    TITLE "0:"
    INDEX 01 02:10:12
  TRACK 99 AUDIO
    TITLE "8:cjc040_4575"
    INDEX 01 02:10:69
  TRACK 100 AUDIO
    TITLE "0:"
    INDEX 01 02:12:23
  TRACK 101 AUDIO
    TITLE "9:cjc040_4576"
    INDEX 01 02:13:05
  TRACK 102 AUDIO
    TITLE "0:"
    INDEX 01 02:14:31
  TRACK 103 AUDIO
    TITLE "7:cjc040_4577"
    INDEX 01 02:16:15
  TRACK 104 AUDIO
    TITLE "0:"
    INDEX 01 02:17:32
  TRACK 105 AUDIO
    TITLE "8:cjc040_4578"
    INDEX 01 02:18:10
  TRACK 106 AUDIO
    TITLE "0:"
    INDEX 01 02:20:42
  TRACK 107 AUDIO
    TITLE "9:cjc040_4579"
    INDEX 01 02:21:22
  TRACK 108 AUDIO
    TITLE "0:"
    INDEX 01 02:22:47
